<svg width="26" height="36" viewBox="0 0 26 36" fill="none" xmlns="http://www.w3.org/2000/svg">
<path d="M24.4078 18.9331C25.0654 18.9331 25.5985 18.4506 25.5985 17.8553V12.0592C25.5985 11.8335 25.5201 11.6134 25.3746 11.43L19.0567 3.47709C18.833 3.19549 18.4733 3.0285 18.0901 3.0285H13.9899V1.07782C13.9899 0.482555 13.4568 0 12.7993 0C12.1417 0 11.6086 0.482555 11.6086 1.07782V3.0285H7.50845C7.12529 3.0285 6.76551 3.19542 6.54181 3.47709L0.223932 11.43C0.0782944 11.6133 0 11.8335 0 12.0592V34.9222C0 35.5174 0.533072 36 1.19065 36H24.4079C25.0655 36 25.5986 35.5174 25.5986 34.9222V23.9976C25.5986 23.4023 25.0655 22.9198 24.4079 22.9198C23.7503 22.9198 23.2173 23.4023 23.2173 23.9976V33.8444H2.38123V18.9331H24.4078ZM2.38123 12.4065L8.11873 5.18407H11.6086V6.68138C9.45448 7.1652 7.85286 8.92955 7.85286 11.027C7.85286 13.4959 10.0718 15.5046 12.7992 15.5046C15.5265 15.5046 17.7455 13.4959 17.7455 11.027C17.7455 8.92962 16.1439 7.1652 13.9898 6.68138V5.18407H17.4796L23.2171 12.4065V16.7775H2.38123V12.4065ZM12.7993 8.70504C14.2136 8.70504 15.3643 9.74672 15.3643 11.027C15.3643 12.3074 14.2136 13.349 12.7993 13.349C11.3849 13.349 10.2342 12.3074 10.2342 11.027C10.2342 9.74665 11.3849 8.70504 12.7993 8.70504Z" fill="black"/>
</svg>
